<svg width="150" height="124" viewBox="0 0 150 124" fill="none" xmlns="http://www.w3.org/2000/svg">
<path d="M54.1278 87.1662C53.1659 87.1662 52.218 86.6738 51.5931 85.738C50.5274 84.148 50.7979 81.8717 52.1959 80.6573L96.5846 42.1598L52.2588 65.095C50.6603 65.9206 48.7692 65.1162 48.0439 63.2926C47.3141 61.4742 48.0241 59.324 49.6261 58.4945L119.67 22.2507C121.15 21.4862 122.892 22.11 123.72 23.6895C124.551 25.2743 124.203 27.3143 122.917 28.4345L56.0575 86.4242C55.478 86.9273 54.7994 87.1662 54.1278 87.1662Z" fill="url(#paint0_linear_7_1617)"/>
<path d="M38.2057 123.41C37.9632 123.41 37.7183 123.377 37.4735 123.316C36.037 122.924 35.0215 121.467 35.0215 119.785V70.984L7.78385 50.3145C2.958 46.6539 0 44.1971 0 40.0507C0 36.1512 1.93314 33.7369 5.74694 32.8702C53.4598 22.0078 94.9919 12.3054 142.583 0.269751C146.268 -0.668629 148.146 1.05549 148.926 2.16509C150.192 3.9662 150.349 6.50659 149.342 8.9647C127.034 63.3735 120.507 78.2402 104.731 114.157C103.684 116.535 102.258 119.785 98.6984 119.785C96.0401 119.785 94.2562 118.409 91.7961 116.499L90.5636 115.552L55.3603 88.8332L41.0553 121.406C40.5049 122.656 39.3903 123.41 38.2057 123.41ZM54.1244 79.9179C54.7458 79.9179 55.3638 80.1276 55.8919 80.5271L95.3778 110.504C96.9694 111.739 97.7307 112.302 98.3032 112.476C98.5515 112.011 98.8733 111.279 99.0319 110.914C114.614 75.4423 121.16 60.5344 142.863 7.62017C95.6763 19.5444 54.3797 29.1883 6.99217 39.9777C6.80329 40.0215 6.65405 40.0573 6.53279 40.0932C7.04581 40.8763 8.65948 42.2686 11.3155 44.2834L39.9698 66.0294C40.8582 66.7036 41.3899 67.8344 41.3899 69.0449V104.433L51.2748 81.9221C51.6829 80.9903 52.4244 80.3094 53.307 80.0374C53.5775 79.9577 53.8504 79.9179 54.1244 79.9179ZM143.271 3.80693H143.303H143.271Z" fill="url(#paint1_linear_7_1617)"/>
<path d="M38.2088 123.41C37.1035 123.41 36.0274 122.754 35.4421 121.584C34.5699 119.847 35.1016 117.632 36.6267 116.639L58.9125 102.142C60.4411 101.149 62.3859 101.754 63.2557 103.49C64.1278 105.226 63.5961 107.441 62.0711 108.434L39.784 122.932C39.2873 123.257 38.7428 123.41 38.2088 123.41Z" fill="url(#paint2_linear_7_1617)"/>
<defs>
<linearGradient id="paint0_linear_7_1617" x1="85.9637" y1="21.9253" x2="85.9637" y2="87.1662" gradientUnits="userSpaceOnUse">
<stop stop-color="#707CDD"/>
<stop offset="1" stop-color="#121530"/>
</linearGradient>
<linearGradient id="paint1_linear_7_1617" x1="75" y1="0" x2="75" y2="123.41" gradientUnits="userSpaceOnUse">
<stop stop-color="#707CDD"/>
<stop offset="1" stop-color="#121530"/>
</linearGradient>
<linearGradient id="paint2_linear_7_1617" x1="49.3489" y1="101.664" x2="49.3489" y2="123.41" gradientUnits="userSpaceOnUse">
<stop stop-color="#707CDD"/>
<stop offset="1" stop-color="#121530"/>
</linearGradient>
</defs>
</svg>
