<svg width="93" height="50" viewBox="0 0 93 50" fill="none" xmlns="http://www.w3.org/2000/svg">
<path fill-rule="evenodd" clip-rule="evenodd" d="M87.4713 25.5738C88.298 25.5446 89.1169 25.5157 89.915 25.5157V25.5074C93.5378 25.5074 93.5312 31.1345 89.915 31.1345C89.1322 31.1345 88.3395 31.1515 87.5424 31.1687C85.0548 31.2222 82.5234 31.2767 80.1107 30.8167C69.7603 28.8439 64.4725 16.5273 69.8877 7.59028C71.207 5.43637 73.0243 3.63074 75.1866 2.32523C77.3489 1.01973 79.793 0.25252 82.3135 0.0881254C84.0569 -0.0333681 85.8216 -0.00325176 87.5798 0.0267519C88.3603 0.0400722 89.1395 0.0533702 89.915 0.0533702C93.5378 0.0533702 93.5312 5.6804 89.915 5.6804C89.1169 5.6804 88.2998 5.65247 87.4757 5.62429C85.5059 5.55694 83.4955 5.48821 81.6052 5.79625C76.8586 6.5708 73.2904 10.7845 73.2904 15.5972C73.2904 20.41 76.8619 24.6005 81.6052 25.3998C83.4878 25.7146 85.5018 25.6434 87.4713 25.5738ZM2.71587 5.67879H22.149C25.7668 5.67879 25.7735 0.0517553 22.149 0.0517553H2.71587C-0.90198 0.0517553 -0.9086 5.67879 2.71587 5.67879ZM2.71587 18.4074H22.149C25.7668 18.4074 25.7735 12.7804 22.149 12.7804H2.71587C-0.90198 12.7804 -0.9086 18.4074 2.71587 18.4074ZM22.149 31.1377H2.71587C-0.9086 31.1377 -0.90198 25.5106 2.71587 25.5106H22.149C25.7735 25.5106 25.7668 31.1377 22.149 31.1377ZM38.5435 5.67881H47.5782C47.8994 5.67881 48.2461 5.67018 48.6084 5.66117C51.4199 5.59123 55.1681 5.49798 55.1681 9.23212C55.1681 12.9376 51.4877 12.8595 48.718 12.8008C48.3876 12.7938 48.0702 12.7871 47.7735 12.7871H38.5435C34.9257 12.7871 34.9207 18.4141 38.5435 18.4141H46.9708C47.4501 18.4141 47.9352 18.4227 48.423 18.4313C51.2869 18.4818 54.2459 18.534 56.7023 16.8667C61.3198 13.7321 62.1373 7.03757 58.2845 2.95135C55.5621 0.0564344 52.0551 0.0565848 48.4308 0.0567401L48.3511 0.0567423H38.5435C34.9257 0.0567423 34.9207 5.68378 38.5435 5.68378V5.67881Z" fill="black"/>
<path fill-rule="evenodd" clip-rule="evenodd" d="M46.2518 41.7852C47.03 41.7852 47.7973 41.9681 48.4919 42.3192H48.4902C49.1376 42.6638 49.679 43.178 50.0565 43.8066C50.4341 44.4353 50.6335 45.1549 50.6335 45.8882C50.6335 46.6216 50.4341 47.3411 50.0565 47.9698C49.679 48.5985 49.1376 49.1127 48.4902 49.4573C47.7964 49.8098 47.0292 49.9935 46.251 49.9935C45.4728 49.9935 44.7055 49.8098 44.0117 49.4573C43.3704 49.1195 42.8341 48.6123 42.461 47.9909C42.0934 47.3511 41.8999 46.6261 41.8999 45.8882C41.8999 45.1503 42.0934 44.4253 42.461 43.7855C42.8345 43.1644 43.3707 42.6574 44.0117 42.3192C44.7063 41.9681 45.4736 41.7852 46.2518 41.7852ZM47.7041 48.4163C48.1332 48.1728 48.4866 47.8154 48.7252 47.3835C48.9676 46.9227 49.0942 46.4098 49.0942 45.8891C49.0942 45.3683 48.9676 44.8554 48.7252 44.3946C48.4871 43.9619 48.1336 43.6038 47.7041 43.3602C47.2595 43.119 46.7617 42.9927 46.2559 42.9927C45.7502 42.9927 45.2524 43.119 44.8078 43.3602C44.3783 43.6038 44.0248 43.9619 43.7867 44.3946C43.5443 44.8554 43.4177 45.3683 43.4177 45.8891C43.4177 46.4098 43.5443 46.9227 43.7867 47.3835C44.0253 47.8154 44.3787 48.1728 44.8078 48.4163C45.2517 48.6595 45.7498 48.787 46.2559 48.787C46.7621 48.787 47.2602 48.6595 47.7041 48.4163ZM4.46855 42.9894C5.27619 42.9805 6.0549 43.2897 6.63661 43.85L7.56176 42.996C7.19982 42.628 6.76681 42.3374 6.28906 42.142C5.68101 41.9008 5.03161 41.7811 4.37753 41.7895C3.59284 41.7739 2.81638 41.9518 2.11678 42.3075C1.4726 42.6406 0.933483 43.1459 0.559418 43.7672C0.192776 44.4119 0 45.1407 0 45.8823C0 46.6239 0.192776 47.3528 0.559418 47.9974C0.932464 48.6154 1.46687 49.1201 2.1052 49.4572C2.7958 49.816 3.5646 49.9979 4.34277 49.9868C4.93265 49.9856 5.519 49.8958 6.08219 49.7203C6.59025 49.5694 7.07039 49.3368 7.50384 49.0318V45.9783H6.17983V48.34L6.06233 48.4013C5.56605 48.6619 5.01252 48.7945 4.452 48.7869C3.92503 48.7953 3.40473 48.6682 2.94098 48.4178C2.50236 48.1772 2.13955 47.819 1.89336 47.3834C1.64064 46.9282 1.51168 46.4146 1.51932 45.8939C1.51034 45.3673 1.63929 44.8475 1.89336 44.3862C2.14009 43.9495 2.50642 43.5924 2.94925 43.3568C3.41729 43.11 3.93946 42.9837 4.46855 42.9894ZM26.9105 47.1784C27.3961 46.9886 27.8102 46.6517 28.0948 46.2149C28.3794 45.778 28.5202 45.2631 28.4976 44.7422C28.5109 44.2167 28.3699 43.6989 28.0921 43.2527C27.8064 42.8219 27.4008 42.4842 26.9253 42.2812C26.344 42.0363 25.7173 41.9173 25.0866 41.932H21.6806V49.8529H23.1701V47.5193H25.2869L26.9005 49.8495H28.4397L26.6622 47.2876L26.9105 47.1784ZM24.9791 46.4204H23.1817V43.0624H24.9791C25.6113 43.0624 26.1045 43.2063 26.4471 43.4893C26.6157 43.6507 26.75 43.8445 26.8417 44.0591C26.9334 44.2737 26.9807 44.5047 26.9807 44.738C26.9807 44.9714 26.9334 45.2024 26.8417 45.417C26.75 45.6316 26.6157 45.8254 26.4471 45.9868C26.1061 46.2797 25.6129 46.4204 24.9791 46.4204ZM65.8694 46.3193V41.9286H64.3799V46.3971C64.3799 47.5556 64.6927 48.4559 65.3117 49.0716C65.9306 49.6873 66.8161 50.0001 67.9464 50.0001C69.0768 50.0001 69.9606 49.6873 70.5795 49.0716C71.1985 48.4559 71.5113 47.5573 71.5113 46.3971V41.9286H70.0433V46.3193C70.0433 47.1468 69.8629 47.7642 69.5104 48.168C69.1579 48.5718 68.6266 48.7869 67.958 48.7869C67.0097 48.7869 65.8694 48.3583 65.8694 46.3193ZM91.0652 42.2778C91.5376 42.4822 91.9402 42.8198 92.2237 43.2493H92.2122C92.4776 43.7008 92.6175 44.2151 92.6175 44.7388C92.6175 45.2626 92.4776 45.7768 92.2122 46.2283C91.9295 46.6582 91.5266 46.9955 91.0536 47.1982C90.4708 47.4398 89.844 47.557 89.2133 47.5424H87.3084V49.8495H85.8189V41.9286H89.2265C89.8572 41.9139 90.4839 42.0329 91.0652 42.2778ZM89.1107 46.4087C89.7512 46.4087 90.2377 46.2647 90.5787 45.9817C90.7476 45.8211 90.8821 45.6278 90.9741 45.4136C91.066 45.1993 91.1134 44.9686 91.1134 44.7355C91.1134 44.5024 91.066 44.2717 90.9741 44.0575C90.8821 43.8432 90.7476 43.6499 90.5787 43.4893C90.2361 43.2063 89.7429 43.0623 89.1107 43.0623H87.3133V46.4087H89.1107Z" fill="black"/>
</svg>
