<svg width="150" height="150" viewBox="0 0 150 150" fill="none" xmlns="http://www.w3.org/2000/svg">
<path d="M4.83871 135.484H14.5161V145.161H9.67742V150H43.5484V145.161H38.7097V135.484H48.3871C51.0556 135.484 53.2258 133.314 53.2258 130.645V101.613C53.2258 98.9444 51.0556 96.7742 48.3871 96.7742H55.6452C58.3137 96.7742 60.4839 94.604 60.4839 91.9355V62.9032H72.5807V82.2581C72.5807 84.9266 74.7508 87.0968 77.4194 87.0968H91.9355V96.7742H67.7419C65.0734 96.7742 62.9032 98.9444 62.9032 101.613V130.645C62.9032 133.314 65.0734 135.484 67.7419 135.484H77.4194V145.161H72.5807V150H106.452V145.161H101.613V135.484H111.29C113.959 135.484 116.129 133.314 116.129 130.645V101.613C116.129 98.9444 113.959 96.7742 111.29 96.7742H96.7742V87.0968C96.7742 84.4282 94.604 82.2581 91.9355 82.2581H77.4194V62.9032H91.9355C99.9411 62.9032 106.452 56.3927 106.452 48.3871C106.452 41.1048 101.059 35.0782 94.0597 34.0452L93.5661 30.5879C91.0742 13.1492 75.9121 0 58.2968 0C41.6081 0 26.9589 11.8452 23.4605 28.1613L22.2048 34.0234C15.1403 34.9984 9.67742 41.0589 9.67742 48.3871C9.67742 56.3927 16.1879 62.9032 24.1936 62.9032H38.7097V82.2581H24.1936C21.525 82.2581 19.3548 84.4282 19.3548 87.0968V96.7742H4.83871C2.17016 96.7742 0 98.9444 0 101.613V130.645C0 133.314 2.17016 135.484 4.83871 135.484ZM96.7742 145.161H82.2581V135.484H96.7742V145.161ZM67.7419 130.645V125.806H111.295V130.645H67.7419ZM111.293 120.968H67.7419V101.613H111.29L111.293 120.968ZM33.871 145.161H19.3548V135.484H33.871V145.161ZM4.83871 130.645V125.806H48.3919V130.645H4.83871ZM14.5161 48.3871C14.5161 43.05 18.8565 38.7097 24.1936 38.7097H24.9774C28.2194 38.7097 31.229 40.321 33.029 43.0186L34.2774 44.8887L38.3032 42.2056L37.0548 40.3355C34.7613 36.9 31.1565 34.6548 27.1452 34.0524L28.1903 29.1774C31.2145 15.0726 43.875 4.83871 58.2968 4.83871C73.5194 4.83871 86.6226 16.2024 88.7758 31.2726L89.1677 34.0161C85.0815 34.5774 81.404 36.8444 79.0742 40.3355L77.8258 42.2056L81.8516 44.8887L83.1 43.0186C84.9 40.321 87.9097 38.7097 91.1516 38.7097H91.9355C97.2726 38.7097 101.613 43.05 101.613 48.3871C101.613 53.7242 97.2726 58.0645 91.9355 58.0645H24.1936C18.8565 58.0645 14.5161 53.7242 14.5161 48.3871ZM24.1936 87.0968H38.7097C41.3782 87.0968 43.5484 84.9266 43.5484 82.2581V62.9032H55.6452V91.9355H48.3871C45.7186 91.9355 43.5484 94.1057 43.5484 96.7742H24.1936V87.0968ZM48.3871 101.613L48.3895 120.968H4.83871V101.613H48.3871ZM58.0645 38.7097C54.0629 38.7097 50.8065 41.9661 50.8065 45.9677C50.8065 49.9694 54.0629 53.2258 58.0645 53.2258C62.0661 53.2258 65.3226 49.9694 65.3226 45.9677C65.3226 41.9661 62.0661 38.7097 58.0645 38.7097ZM58.0645 48.3871C56.729 48.3871 55.6452 47.3008 55.6452 45.9677C55.6452 44.6347 56.729 43.5484 58.0645 43.5484C59.4 43.5484 60.4839 44.6347 60.4839 45.9677C60.4839 47.3008 59.4 48.3871 58.0645 48.3871ZM71.3613 36.1476L72.1742 37.3669L68.1484 40.05L67.3355 38.8306C65.2645 35.7266 61.7976 33.871 58.0645 33.871C54.3315 33.871 50.8645 35.7266 48.7935 38.8331L47.9806 40.0524L43.9548 37.3694L44.7677 36.15C47.7387 31.6936 52.7105 29.0323 58.0645 29.0323C63.4186 29.0323 68.3903 31.6936 71.3613 36.1476ZM79.3548 30L75.4839 32.9032C71.3927 27.45 64.8798 24.1936 58.0645 24.1936C51.2492 24.1936 44.7363 27.45 40.6452 32.9032L36.7742 30C41.775 23.3347 49.7347 19.3548 58.0645 19.3548C66.3944 19.3548 74.354 23.3347 79.3548 30ZM145.161 53.2258V43.5484C145.161 40.8798 142.991 38.7097 140.323 38.7097H135.484C132.815 38.7097 130.645 40.8798 130.645 43.5484H125.806C125.806 40.8798 123.636 38.7097 120.968 38.7097H116.129C113.46 38.7097 111.29 40.8798 111.29 43.5484V53.2258C108.622 53.2258 106.452 55.396 106.452 58.0645V87.0968C106.452 89.7653 108.622 91.9355 111.29 91.9355H120.968V96.7742C120.968 99.4427 123.138 101.613 125.806 101.613V150H130.645V101.613C133.314 101.613 135.484 99.4427 135.484 96.7742V91.9355H145.161C147.83 91.9355 150 89.7653 150 87.0968V58.0645C150 55.396 147.83 53.2258 145.161 53.2258ZM140.323 43.5484V53.2258H135.484V43.5484H140.323ZM130.645 48.3871V53.2258V55.6452V62.9032H125.806V55.6452V53.2258V48.3871H130.645ZM116.129 43.5484H120.968V53.2258H116.129V43.5484ZM120.968 58.0645V62.9032C120.968 65.5718 123.138 67.7419 125.806 67.7419H130.645C133.314 67.7419 135.484 65.5718 135.484 62.9032V58.0645L145.161 58.0621V77.4194H111.29V58.0645H120.968ZM125.806 82.2581V87.0968H120.968V82.2581H125.806ZM130.645 82.2581H135.484V87.0968H130.645V82.2581ZM111.29 82.2581H116.129V87.0968H111.29V82.2581ZM130.645 96.7742H125.806V91.9355H130.645V96.7742ZM140.323 87.0968V82.2581H145.161V87.0968H140.323Z" fill="url(#paint0_linear_7_1612)"/>
<defs>
<linearGradient id="paint0_linear_7_1612" x1="75" y1="150" x2="75" y2="0" gradientUnits="userSpaceOnUse">
<stop stop-color="#121530"/>
<stop offset="1" stop-color="#707CDD"/>
</linearGradient>
</defs>
</svg>
