<svg width="150" height="138" viewBox="0 0 150 138" fill="none" xmlns="http://www.w3.org/2000/svg">
<path fill-rule="evenodd" clip-rule="evenodd" d="M4.69108 103.202L15.3962 92.5037H15.4255L44.5313 121.613V121.642L33.8259 132.34H33.7966L4.68844 103.218C4.68844 103.218 4.68844 103.204 4.69137 103.204L4.69108 103.202ZM36.6502 52.1985C37.6938 62.7164 31.8513 84.9429 24.3044 94.7427L42.334 112.78L52.6409 105.911C52.7143 105.858 52.792 105.812 52.8733 105.773C58.5913 102.843 63.4029 100.244 67.1846 98.06C70.2889 93.167 72.6802 87.8567 74.2864 82.2891C74.3766 81.9857 74.527 81.7037 74.7285 81.4597C80.3499 74.6869 86.2106 67.997 92.2163 61.5006C89.0825 59.6238 86.3319 57.1711 84.1096 54.2719L67.2048 71.4803C66.8419 71.8398 66.3754 72.0767 65.8709 72.1576C64.5355 72.351 63.1755 72.503 61.8349 72.6264H61.6298C61.2382 72.6271 60.8528 72.5297 60.5087 72.343C60.1645 72.1562 59.8727 71.8862 59.66 71.5575C59.4472 71.2289 59.3202 70.8521 59.2907 70.4617C59.2612 70.0713 59.3301 69.6797 59.491 69.3228C59.9182 68.3829 60.5015 67.2634 61.1789 65.9778C63.4234 61.7068 66.7188 55.4307 66.2556 50.8151L63.9431 42.1901L47.8018 45.1618C47.7602 45.1756 47.7189 45.1756 47.6788 45.1896C36.1062 46.6824 36.5163 50.8289 36.6502 52.1974V52.1985ZM64.0357 23.5037C64.1653 23.3069 64.3586 23.1605 64.5833 23.0892L133.175 4.7069C133.375 4.66021 133.585 4.69145 133.762 4.79426C133.939 4.89707 134.071 5.06368 134.129 5.26004L135.898 11.8945L65.7183 30.7051L63.9337 24.0428C63.9143 23.9508 63.9132 23.8558 63.9305 23.7633C63.9478 23.6708 63.9831 23.5826 64.0345 23.5037H64.0357ZM68.9082 60.7119L69.3477 62.3569C69.3639 62.4183 69.3847 62.4783 69.4101 62.5365L66.9248 65.0658C67.6103 63.6976 68.2959 62.2324 68.9097 60.7119H68.9082ZM138.317 20.9053L137.116 16.4269L66.9318 35.2249L68.1289 39.7033L138.317 20.9053ZM145.214 47.4989C145.113 47.6721 144.95 47.8006 144.758 47.8584L101.125 58.8605C101.201 58.7776 101.277 58.6947 101.354 58.6118C103.158 56.7064 104.142 54.1693 104.095 51.5461C104.048 48.9228 102.973 46.4228 101.102 44.5833C99.2315 42.7438 96.7137 41.7118 94.09 41.709C91.4664 41.7063 88.9463 42.733 87.0716 44.5685C87.069 44.5685 87.0634 44.5685 87.0564 44.5826C87.0538 44.5826 87.0482 44.5826 87.0426 44.5964L73.2109 58.6672L70.8735 49.9318C70.8067 49.4281 70.7089 48.9291 70.5805 48.4376C70.5174 48.2137 70.4234 47.9998 70.3013 47.8018L69.3462 44.2357L139.535 25.4239L145.285 46.9173C145.314 47.0136 145.322 47.1149 145.311 47.2147C145.299 47.3146 145.266 47.4109 145.216 47.4977L145.214 47.4989ZM90.3603 47.8997C91.3583 46.9218 92.7003 46.3748 94.0975 46.3762C95.4948 46.3777 96.8356 46.9275 97.8316 47.9074C98.8276 48.8873 99.3992 50.219 99.4234 51.6161C99.4476 53.0131 98.9225 54.3638 97.961 55.3776C97.1407 56.2346 96.3259 57.0916 95.5144 57.9623C92.4902 56.4004 89.772 54.0229 87.4282 50.8854L90.36 47.8997H90.3603ZM95.7107 76.6358C95.3181 76.5116 93.6457 75.6821 90.3199 70.5542C92.1152 68.5361 93.9246 66.5457 95.7479 64.583C95.7104 68.5362 95.7513 72.4848 95.8706 76.4286C95.8236 76.5024 95.7699 76.5717 95.7104 76.6358H95.7107ZM85.4564 89.2001C84.5166 89.283 83.802 89.1726 83.4056 88.8822C82.858 88.4814 82.6937 87.4724 82.6565 86.6849V86.6556L82.2111 79.8415C83.2867 78.5835 84.3695 77.3256 85.4594 76.068C85.6032 82.0805 85.6003 86.476 85.4567 89.1989L85.4564 89.2001ZM30.4789 135.656C30.916 136.094 31.4352 136.442 32.0067 136.679C32.5783 136.916 33.1911 137.038 33.81 137.038C34.4288 137.038 35.0416 136.916 35.6132 136.679C36.1848 136.442 36.7039 136.094 37.141 135.656L47.8464 124.958C48.7273 124.073 49.2219 122.875 49.2219 121.627C49.2219 120.378 48.7273 119.18 47.8464 118.295L45.7135 116.153L55.1277 109.878C61.1138 106.81 66.1238 104.1 70.0203 101.847C70.332 101.659 70.5981 101.404 70.7997 101.101C73.8036 96.4885 76.2012 91.5085 77.9334 86.2838L77.9776 86.9471C78.1089 89.5318 78.9934 91.4531 80.6106 92.6555C81.7412 93.4849 83.1665 93.9135 84.8652 93.9135C85.9969 93.8986 87.1224 93.7454 88.2169 93.4574C88.6794 93.342 89.0958 93.0884 89.4104 92.7303C89.7251 92.3722 89.9231 91.9266 89.978 91.4531C90.2475 89.1034 90.3178 84.7217 90.1948 78.1563C92.2128 80.3264 94.029 81.3498 95.7906 81.3498C95.8826 81.3521 95.9745 81.3475 96.0657 81.336C97.3317 81.2669 99.1039 80.6171 100.353 77.9911C100.514 77.6552 100.593 77.2854 100.581 76.9129C100.432 72.5865 100.385 68.2188 100.44 63.8649L145.919 52.3919H145.961C147.356 52.0118 148.545 51.0952 149.268 49.8419C149.99 48.5886 150.188 47.1004 149.817 45.7021L143.46 21.9559H143.446L141.041 12.9437L138.649 4.04243C138.465 3.35069 138.145 2.70216 137.71 2.13392C137.274 1.56567 136.731 1.08885 136.111 0.730699C135.491 0.372551 134.806 0.140099 134.096 0.0466304C133.386 -0.0468381 132.665 0.000508535 131.973 0.185965L63.3698 18.5694C61.9823 18.9425 60.7904 19.8328 60.0389 21.0574C59.6513 21.6771 59.3952 22.3698 59.2863 23.0926C59.1774 23.8154 59.218 24.5528 59.4058 25.2593L62.7287 37.6578L47.0128 40.5465C33.777 42.288 31.5348 48.0933 31.9869 52.6547C32.9101 62.0133 27.6233 82.3307 20.9569 91.3989L18.7426 89.1875C17.8588 88.3046 16.6606 87.8087 15.4114 87.8087C14.1622 87.8087 12.9641 88.3046 12.0803 89.1875L1.37575 99.8847C0.494676 100.769 0 101.967 0 103.216C0 104.464 0.494676 105.662 1.37575 106.547L30.4795 135.656H30.4789ZM127.188 45.4809L124.774 36.4689L133.784 34.05L136.202 43.062L127.188 45.4809ZM137.709 30.5806C137.629 30.2829 137.491 30.0039 137.304 29.7594C137.116 29.5149 136.882 29.3099 136.615 29.1558C136.348 29.0018 136.053 28.9019 135.748 28.8618C135.442 28.8217 135.132 28.8422 134.834 28.9221L121.297 32.5436C120.999 32.6233 120.72 32.761 120.476 32.9488C120.231 33.1365 120.026 33.3706 119.872 33.6376C119.719 33.9047 119.619 34.1994 119.579 34.505C119.54 34.8106 119.56 35.121 119.641 35.4185L123.268 48.9503C123.346 49.2486 123.483 49.5283 123.67 49.7728C123.858 50.0173 124.093 50.2217 124.361 50.3739C124.717 50.5814 125.121 50.6911 125.533 50.6917C125.739 50.6916 125.943 50.6637 126.141 50.6088L139.673 46.9876C139.97 46.9078 140.25 46.77 140.494 46.5823C140.738 46.3945 140.944 46.1605 141.098 45.8935C141.251 45.6265 141.351 45.3318 141.391 45.0262C141.432 44.7205 141.411 44.41 141.331 44.1124L137.709 30.5806Z" fill="url(#paint0_linear_7_1615)"/>
<defs>
<linearGradient id="paint0_linear_7_1615" x1="75.001" y1="137.038" x2="75.001" y2="-0.00359407" gradientUnits="userSpaceOnUse">
<stop stop-color="#121530"/>
<stop offset="1" stop-color="#707CDD"/>
</linearGradient>
</defs>
</svg>
