<svg width="150" height="151" viewBox="0 0 150 151" fill="none" xmlns="http://www.w3.org/2000/svg">
<path d="M20.6897 75.2767C17.7078 70.81 12.4241 67.8977 6.55603 67.8977C2.9431 67.8977 0 70.6548 0 74.0448C0 75.2621 0.380173 76.4407 1.10172 77.4543L3.76293 81.1959C4.74828 82.583 5.38448 84.1883 5.60431 85.8421L7.43793 99.5889C7.71465 101.679 8.57328 103.675 9.92586 105.36L15.5172 112.354V116.396H10.3448V150.345H67.2414V116.396H62.069V112.118L65.8784 104.977C66.7681 103.304 67.2414 101.427 67.2414 99.5574V60.6229C67.2414 59.5244 66.9491 58.4672 66.4552 57.4972C70.1741 52.9893 72.4138 47.3538 72.4138 41.2236C72.4138 26.5165 59.6509 14.5495 43.9655 14.5495C28.2802 14.5495 15.5172 26.5165 15.5172 41.2236C15.5172 47.3513 17.7569 52.9869 21.4759 57.4972C20.9793 58.4672 20.6897 59.5244 20.6897 60.6229V75.2767ZM62.069 121.246V126.096H15.5172V121.246H62.069ZM15.5172 145.495V130.946H62.069V145.495H15.5172ZM61.2517 102.809L56.8966 110.974V116.396H20.6897V110.739L14.0612 102.453C13.2517 101.442 12.7345 100.246 12.569 98.9924L10.7353 85.2455C10.4172 82.8521 9.49655 80.5218 8.06638 78.5115L5.40517 74.765C5.25259 74.5516 5.17241 74.3019 5.17241 74.0448C5.17241 73.3295 5.7931 72.7475 6.55603 72.7475C12.0155 72.7475 16.7586 76.3922 17.8319 81.4142L21.0595 96.5505L22.6474 96.9239C27.5871 98.083 31.0345 102.222 31.0345 106.995V111.546H36.2069V106.995C36.2069 100.649 32.0379 95.0834 25.8621 92.8282V61.7845C27.4474 63.0139 29.1879 64.0663 31.0345 64.9538V89.7219H36.2069V66.8647C37.875 67.3084 39.6 67.6237 41.3793 67.7764V89.7219H46.5517V67.774C48.3284 67.6236 50.056 67.3084 51.7241 66.8622V89.7219H56.8966V64.9538C58.7431 64.0663 60.4836 63.0139 62.069 61.7845V99.5574C62.069 100.68 61.7871 101.805 61.2517 102.809ZM43.9655 19.3993C56.8009 19.3993 67.2414 29.1911 67.2414 41.2236C67.2414 53.256 56.8009 63.0478 43.9655 63.0478C31.1302 63.0478 20.6897 53.256 20.6897 41.2236C20.6897 29.1911 31.1302 19.3993 43.9655 19.3993ZM46.5517 48.4983V46.0734C46.5517 44.7373 45.3931 43.6485 43.9655 43.6485C39.6879 43.6485 36.2069 40.3846 36.2069 36.3738V29.099H41.3793V24.2492H46.5517V29.5452C49.5543 30.5491 51.7241 33.2165 51.7241 36.3738H46.5517C46.5517 35.0376 45.3931 33.9488 43.9655 33.9488H41.3793V36.3738C41.3793 37.7099 42.5379 38.7987 43.9655 38.7987C48.2431 38.7987 51.7241 42.0626 51.7241 46.0734V53.3482H46.5517V58.198H41.3793V52.902C38.3767 51.8981 36.2069 49.2307 36.2069 46.0734H41.3793C41.3793 47.4095 42.5379 48.4983 43.9655 48.4983H46.5517ZM72.4138 113.971C72.4138 131.353 87.4966 145.495 106.034 145.495C124.572 145.495 139.655 131.353 139.655 113.971C139.655 104.987 135.605 96.89 129.155 91.1429C129.253 90.6798 129.31 90.2045 129.31 89.7219V75.0681C132.292 79.5348 137.576 82.4472 143.444 82.4472C147.057 82.4472 150 79.69 150 76.3C150 75.0827 149.62 73.9042 148.898 72.8906L146.237 69.1489C145.252 67.7619 144.616 66.1566 144.396 64.5028L142.562 50.7559C142.285 48.6657 141.427 46.6699 140.074 44.9846L134.483 37.9912V33.9488H139.655V0H82.7586V33.9488H87.931V38.2264L84.1216 45.3678C83.2319 47.041 82.7586 48.9178 82.7586 50.7875V89.7219C82.7586 90.2045 82.8155 90.6798 82.9138 91.1429C76.4638 96.89 72.4138 104.987 72.4138 113.971ZM134.483 113.971C134.483 128.678 121.72 140.645 106.034 140.645C90.3491 140.645 77.5862 128.678 77.5862 113.971C77.5862 99.264 90.3491 87.297 106.034 87.297C121.72 87.297 134.483 99.264 134.483 113.971ZM134.483 4.84983V29.099H87.931V19.3993H108.621V14.5495H87.931V4.84983H134.483ZM88.7483 47.5356L93.1034 39.3709V33.9488H129.31V39.6062L135.936 47.8921C136.746 48.9033 137.263 50.0988 137.428 51.3525L139.262 65.0993C139.58 67.4927 140.501 69.8231 141.931 71.8333L144.592 75.575C144.745 75.7883 144.825 76.0381 144.825 76.2952C144.828 77.0154 144.207 77.5973 143.444 77.5973C137.984 77.5973 133.241 73.9527 132.168 68.9307L128.941 53.7944L127.353 53.4209C122.413 52.2618 118.966 48.1225 118.966 43.3502V38.7987H113.793V43.3502C113.793 49.6962 117.962 55.2614 124.138 57.5166V87.4498C122.501 86.4628 120.778 85.5899 118.966 84.8794V60.6229H113.793V83.3274C112.112 82.954 110.387 82.6969 108.621 82.5684V60.6229H103.448V82.5708C101.682 82.6969 99.9569 82.954 98.2759 83.3298V60.6229H93.1034V84.8794C91.2905 85.5899 89.5681 86.4653 87.931 87.4498V50.7875C87.931 49.6647 88.2129 48.5396 88.7483 47.5356ZM123.38 101.136L92.3457 130.235L88.6888 126.806L119.723 97.7072L123.38 101.136ZM116.379 116.396C112.102 116.396 108.621 119.66 108.621 123.671C108.621 127.682 112.102 130.946 116.379 130.946C120.657 130.946 124.138 127.682 124.138 123.671C124.138 119.66 120.657 116.396 116.379 116.396ZM116.379 126.096C114.952 126.096 113.793 125.007 113.793 123.671C113.793 122.335 114.952 121.246 116.379 121.246C117.807 121.246 118.966 122.335 118.966 123.671C118.966 125.007 117.807 126.096 116.379 126.096ZM95.6897 111.546C99.9672 111.546 103.448 108.282 103.448 104.271C103.448 100.261 99.9672 96.9967 95.6897 96.9967C91.4121 96.9967 87.931 100.261 87.931 104.271C87.931 108.282 91.4121 111.546 95.6897 111.546ZM95.6897 101.847C97.1172 101.847 98.2759 102.935 98.2759 104.271C98.2759 105.608 97.1172 106.696 95.6897 106.696C94.2621 106.696 93.1034 105.608 93.1034 104.271C93.1034 102.935 94.2621 101.847 95.6897 101.847ZM121.552 24.2492C125.829 24.2492 129.31 20.9852 129.31 16.9744C129.31 12.9636 125.829 9.69967 121.552 9.69967C117.274 9.69967 113.793 12.9636 113.793 16.9744C113.793 20.9852 117.274 24.2492 121.552 24.2492ZM121.552 14.5495C122.979 14.5495 124.138 15.6383 124.138 16.9744C124.138 18.3105 122.979 19.3993 121.552 19.3993C120.124 19.3993 118.966 18.3105 118.966 16.9744C118.966 15.6383 120.124 14.5495 121.552 14.5495Z" fill="url(#paint0_linear_7_1613)"/>
<defs>
<linearGradient id="paint0_linear_7_1613" x1="75" y1="150.345" x2="75" y2="0" gradientUnits="userSpaceOnUse">
<stop stop-color="#121530"/>
<stop offset="1" stop-color="#707CDD"/>
</linearGradient>
</defs>
</svg>
