<svg width="191" height="67" viewBox="0 0 191 67" fill="none" xmlns="http://www.w3.org/2000/svg">
<mask id="path-1-outside-1_81_2091" maskUnits="userSpaceOnUse" x="0" y="0" width="191" height="67" fill="black">
<rect fill="white" width="191" height="67"/>
<path fill-rule="evenodd" clip-rule="evenodd" d="M7.18324 10.3282V1H1.3765V25.1242H7.18324V15.5805H9.96474L15.0804 25.1242H21.501H21.949H27.7557L29.1487 20.6175H37.1261L38.5231 25.1242H44.7943L35.8685 1H34.3422H31.8536H30.377L21.6759 24.6487L14.4921 12.1365L21.1194 1H14.085L9.43957 10.3282H7.18324ZM33.1318 7.73159L30.5367 16.1273H35.7343L33.1318 7.73159ZM52.3929 15.0503H60.9537V25.1242H66.7604V1H60.9537V10.5768H52.3929V1H46.5695V25.1242H52.3929V15.0503ZM84.6286 1L75.9517 16.2267V1H70.1283V25.1242H75.9517L84.6286 9.91401V25.1242H90.4519V1H84.6286ZM99.7925 1V10.3282H102.049L106.694 1H113.729L107.101 12.1365L114.558 25.1242H107.69L102.574 15.5805H99.7925V25.1242H93.9857V1H99.7925ZM122.979 17.9586L114.243 1H120.431L125.375 11.4715L125.385 11.504L129.374 1H135.529L127.383 20.137C127.073 20.8439 126.714 21.5177 126.304 22.1584C125.906 22.799 125.431 23.3679 124.878 23.8649C124.336 24.362 123.694 24.7541 122.953 25.0413C122.212 25.3285 121.344 25.4721 120.348 25.4721C120.105 25.4721 119.806 25.4666 119.452 25.4555C119.11 25.4555 118.811 25.45 118.557 25.439L118.457 20.9323C118.601 20.9654 118.8 20.9875 119.054 20.9985H119.602C120.265 20.9985 120.791 20.9212 121.178 20.7666C121.565 20.6009 121.869 20.3579 122.09 20.0375C122.323 19.7062 122.522 19.2864 122.688 18.7783L122.979 17.9586ZM151.124 5.49014H145.7L145.301 13.2609C145.201 15.1166 145.013 16.7183 144.737 18.0659C144.46 19.4024 144.09 20.5291 143.625 21.4459C143.161 22.3517 142.602 23.0752 141.949 23.6164C141.297 24.1577 140.539 24.5443 139.676 24.7762C138.825 25.0082 137.868 25.1242 136.806 25.1242H135.396V20.6506L136.027 20.5843C136.535 20.5291 136.983 20.391 137.37 20.1701C137.758 19.9381 138.089 19.5957 138.366 19.1428C138.653 18.69 138.891 18.11 139.079 17.4031C139.267 16.6962 139.417 15.8401 139.527 14.8349C139.649 13.8187 139.732 12.6313 139.776 11.2727L140.141 1H140.539H145.931H151.124H153.015H156.947V25.1242H151.124V5.49014ZM166.404 13.7745V20.6506H169.39C170.22 20.6506 170.917 20.4904 171.481 20.1701C172.056 19.8498 172.493 19.4245 172.792 18.8943C173.09 18.3531 173.239 17.7511 173.239 17.0883C173.239 16.4476 173.09 15.8788 172.792 15.3817C172.493 14.8847 172.056 14.4925 171.481 14.2053C170.917 13.9181 170.22 13.7745 169.39 13.7745H166.404ZM169.39 9.30097H166.404V1H160.564V25.1242H169.39C170.861 25.1242 172.189 24.9309 173.372 24.5443C174.556 24.1577 175.568 23.6109 176.408 22.9039C177.26 22.186 177.913 21.341 178.366 20.3689C178.819 19.3858 179.046 18.3033 179.046 17.1214C179.046 15.5529 178.648 14.1832 177.852 13.0124C177.066 11.8415 175.949 10.9302 174.5 10.2785C173.051 9.62682 171.348 9.30097 169.39 9.30097ZM186.612 25.1242V1H180.805V25.1242H186.612ZM28.3717 50.3976V49.1355C28.3717 46.7539 28.0348 44.6147 27.3611 42.718C26.6874 40.8213 25.7413 39.2098 24.5229 37.8835C23.3044 36.5429 21.8567 35.5233 20.1795 34.8245C18.5167 34.1114 16.6819 33.7549 14.6751 33.7549C12.6539 33.7549 10.8048 34.1114 9.12765 34.8245C7.46485 35.5233 6.02423 36.5429 4.8058 37.8835C3.60171 39.2098 2.6628 40.8213 1.98908 42.718C1.32969 44.6147 1 46.7539 1 49.1355V50.3976C1 52.7792 1.32969 54.9184 1.98908 56.8151C2.6628 58.6976 3.60887 60.3091 4.8273 61.6497C6.06007 62.976 7.50785 63.9956 9.17065 64.7087C10.8478 65.4075 12.6969 65.7569 14.7181 65.7569C16.7249 65.7569 18.5597 65.4075 20.2225 64.7087C21.8853 63.9956 23.3259 62.976 24.5444 61.6497C25.7628 60.3091 26.7017 58.6976 27.3611 56.8151C28.0348 54.9184 28.3717 52.7792 28.3717 50.3976ZM20.7171 49.0927V50.3976C20.7171 51.9236 20.5809 53.2784 20.3085 54.4621C20.0505 55.6315 19.6635 56.6226 19.1474 57.4355C18.6457 58.2484 18.0222 58.8616 17.2768 59.2752C16.5314 59.6888 15.6785 59.8955 14.7181 59.8955C13.7147 59.8955 12.8331 59.6888 12.0734 59.2752C11.328 58.8616 10.6973 58.2484 10.1812 57.4355C9.67952 56.6226 9.29966 55.6315 9.04164 54.4621C8.79795 53.2784 8.67611 51.9236 8.67611 50.3976V49.0927C8.67611 47.5525 8.79795 46.1977 9.04164 45.0283C9.29966 43.8446 9.67952 42.8535 10.1812 42.0549C10.6829 41.2562 11.3065 40.6573 12.0519 40.258C12.7973 39.8444 13.6717 39.6376 14.6751 39.6376C15.6355 39.6376 16.4884 39.8444 17.2338 40.258C17.9935 40.6573 18.6314 41.2562 19.1474 42.0549C19.6635 42.8535 20.0505 43.8446 20.3085 45.0283C20.5809 46.1977 20.7171 47.5525 20.7171 49.0927ZM39.8321 47.1461V39.9799H53.2276V34.1827H39.8321H37.6819H32.285V65.329H39.8321V52.9219H52.002V47.1461H39.8321ZM63.914 39.9799V47.1461H76.084V52.9219H63.914V65.329H56.3669V34.1827H61.7638H63.914H77.3096V39.9799H63.914ZM94.2529 54.6974V49.1141H81.3304V54.6974H94.2529ZM120.958 59.5533V65.329H107.82H105.133H100.273V34.1827H107.82V59.5533H120.958ZM132.16 65.329V34.1827H124.635V65.329H132.16ZM163.617 34.1827V65.329H156.092L145.018 45.9482V65.329H137.471V34.1827H145.018L156.092 53.5636V34.1827H163.617ZM189.936 65.329V59.5533H175.938V52.1304H187.785V46.5471H175.938V39.9799H190V34.1827H175.938H173.25H168.391V65.329H173.25H175.938H189.936Z"/>
</mask>
<path d="M7.18324 1H8.18324V0H7.18324V1ZM7.18324 10.3282H6.18324V11.3282H7.18324V10.3282ZM1.3765 1V0H0.376495V1H1.3765ZM1.3765 25.1242H0.376495V26.1242H1.3765V25.1242ZM7.18324 25.1242V26.1242H8.18324V25.1242H7.18324ZM7.18324 15.5805V14.5805H6.18324V15.5805H7.18324ZM9.96474 15.5805L10.8461 15.1081L10.5633 14.5805H9.96474V15.5805ZM15.0804 25.1242L14.199 25.5966L14.4818 26.1242H15.0804V25.1242ZM27.7557 25.1242V26.1242H28.4933L28.7111 25.4195L27.7557 25.1242ZM29.1487 20.6175V19.6175H28.4112L28.1933 20.3221L29.1487 20.6175ZM37.1261 20.6175L38.0813 20.3214L37.8631 19.6175H37.1261V20.6175ZM38.5231 25.1242L37.5679 25.4202L37.7861 26.1242H38.5231V25.1242ZM44.7943 25.1242V26.1242H46.2306L45.7322 24.7772L44.7943 25.1242ZM35.8685 1L36.8064 0.652996L36.5648 0H35.8685V1ZM30.377 1V0H29.6794L29.4385 0.6547L30.377 1ZM21.6759 24.6487L20.8087 25.1466L21.875 27.0037L22.6144 24.994L21.6759 24.6487ZM14.4921 12.1365L13.6327 11.6251L13.3338 12.1274L13.6248 12.6344L14.4921 12.1365ZM21.1194 1L21.9788 1.5114L22.8782 0H21.1194V1ZM14.085 1V0H13.4658L13.1898 0.554224L14.085 1ZM9.43957 10.3282V11.3282H10.0587L10.3347 10.774L9.43957 10.3282ZM30.5367 16.1273L29.5813 15.832L29.1809 17.1273H30.5367V16.1273ZM33.1318 7.73159L34.087 7.43552L33.1305 4.34975L32.1764 7.43628L33.1318 7.73159ZM35.7343 16.1273V17.1273H37.0912L36.6894 15.8312L35.7343 16.1273ZM60.9537 15.0503H61.9537V14.0503H60.9537V15.0503ZM52.3929 15.0503V14.0503H51.3929V15.0503H52.3929ZM60.9537 25.1242H59.9537V26.1242H60.9537V25.1242ZM66.7604 25.1242V26.1242H67.7604V25.1242H66.7604ZM66.7604 1H67.7604V0H66.7604V1ZM60.9537 1V0H59.9537V1H60.9537ZM60.9537 10.5768V11.5768H61.9537V10.5768H60.9537ZM52.3929 10.5768H51.3929V11.5768H52.3929V10.5768ZM52.3929 1H53.3929V0H52.3929V1ZM46.5695 1V0H45.5695V1H46.5695ZM46.5695 25.1242H45.5695V26.1242H46.5695V25.1242ZM52.3929 25.1242V26.1242H53.3929V25.1242H52.3929ZM75.9517 16.2267H74.9517V20.0014L76.8205 16.7218L75.9517 16.2267ZM84.6286 1V0H84.0475L83.7597 0.504896L84.6286 1ZM75.9517 1H76.9517V0H75.9517V1ZM70.1283 1V0H69.1283V1H70.1283ZM70.1283 25.1242H69.1283V26.1242H70.1283V25.1242ZM75.9517 25.1242V26.1242H76.5325L76.8203 25.6197L75.9517 25.1242ZM84.6286 9.91401H85.6286V6.14295L83.76 9.4185L84.6286 9.91401ZM84.6286 25.1242H83.6286V26.1242H84.6286V25.1242ZM90.4519 25.1242V26.1242H91.4519V25.1242H90.4519ZM90.4519 1H91.4519V0H90.4519V1ZM99.7925 10.3282H98.7925V11.3282H99.7925V10.3282ZM99.7925 1H100.792V0H99.7925V1ZM102.049 10.3282V11.3282H102.668L102.944 10.774L102.049 10.3282ZM106.694 1V0H106.075L105.799 0.554224L106.694 1ZM113.729 1L114.588 1.5114L115.487 0H113.729V1ZM107.101 12.1365L106.242 11.6251L105.943 12.1275L106.234 12.6344L107.101 12.1365ZM114.558 25.1242V26.1242H116.285L115.425 24.6262L114.558 25.1242ZM107.69 25.1242L106.808 25.5966L107.091 26.1242H107.69V25.1242ZM102.574 15.5805L103.455 15.1081L103.173 14.5805H102.574V15.5805ZM99.7925 15.5805V14.5805H98.7925V15.5805H99.7925ZM99.7925 25.1242V26.1242H100.792V25.1242H99.7925ZM93.9857 25.1242H92.9857V26.1242H93.9857V25.1242ZM93.9857 1V0H92.9857V1H93.9857ZM114.243 1V0H112.603L113.354 1.45796L114.243 1ZM122.979 17.9586L123.921 18.2939L124.067 17.8858L123.868 17.5007L122.979 17.9586ZM120.431 1L121.336 0.573053L121.065 0H120.431V1ZM125.375 11.4715L126.338 11.1995L126.315 11.1196L126.28 11.0445L125.375 11.4715ZM125.385 11.504L124.422 11.776L125.245 14.6876L126.319 11.8591L125.385 11.504ZM129.374 1V0H128.684L128.439 0.644967L129.374 1ZM135.529 1L136.449 1.39166L137.041 0H135.529V1ZM127.383 20.137L128.299 20.5382L128.303 20.5286L127.383 20.137ZM126.304 22.1584L125.462 21.62L125.455 21.6305L126.304 22.1584ZM124.878 23.8649L124.209 23.1212L124.202 23.128L124.878 23.8649ZM122.953 25.0413L123.314 25.9737L122.953 25.0413ZM119.452 25.4555L119.484 24.456L119.468 24.4555H119.452V25.4555ZM118.557 25.439L117.557 25.4611L117.577 26.3974L118.513 26.438L118.557 25.439ZM118.457 20.9323L118.682 19.9578L117.429 19.6691L117.457 20.9543L118.457 20.9323ZM119.054 20.9985L119.011 21.9976L119.033 21.9985H119.054V20.9985ZM121.178 20.7666L121.549 21.6952L121.56 21.6907L121.571 21.6859L121.178 20.7666ZM122.09 20.0375L121.271 19.4636L121.268 19.4693L122.09 20.0375ZM122.688 18.7783L121.746 18.443L121.741 18.4554L121.737 18.4679L122.688 18.7783ZM145.7 5.49014V4.49014H144.75L144.702 5.43879L145.7 5.49014ZM151.124 5.49014H152.124V4.49014H151.124V5.49014ZM145.301 13.2609L146.299 13.3145L146.299 13.3123L145.301 13.2609ZM144.737 18.0659L145.716 18.2684L145.716 18.2669L144.737 18.0659ZM143.625 21.4459L144.515 21.9023L144.517 21.8979L143.625 21.4459ZM141.949 23.6164L141.311 22.8467V22.8467L141.949 23.6164ZM139.676 24.7762L139.417 23.8105L139.414 23.8114L139.676 24.7762ZM135.396 25.1242H134.396V26.1242H135.396V25.1242ZM135.396 20.6506L135.292 19.6561L134.396 19.7502V20.6506H135.396ZM136.027 20.5843L136.131 21.5788L136.134 21.5785L136.027 20.5843ZM137.37 20.1701L137.866 21.0386L137.875 21.0334L137.884 21.0279L137.37 20.1701ZM138.366 19.1428L137.522 18.6068L137.517 18.6142L137.512 18.6217L138.366 19.1428ZM139.079 17.4031L138.113 17.1461V17.1461L139.079 17.4031ZM139.527 14.8349L138.534 14.7161L138.533 14.7256L139.527 14.8349ZM139.776 11.2727L138.777 11.2371L138.777 11.2401L139.776 11.2727ZM140.141 1V0H139.176L139.142 0.964491L140.141 1ZM156.947 1H157.947V0H156.947V1ZM156.947 25.1242V26.1242H157.947V25.1242H156.947ZM151.124 25.1242H150.124V26.1242H151.124V25.1242ZM166.404 20.6506H165.404V21.6506H166.404V20.6506ZM166.404 13.7745V12.7745H165.404V13.7745H166.404ZM171.481 20.1701L170.994 19.2964L170.987 19.3005L171.481 20.1701ZM172.792 18.8943L173.663 19.3851L173.667 19.3774L172.792 18.8943ZM172.792 15.3817L173.649 14.8667L173.649 14.8667L172.792 15.3817ZM171.481 14.2053L171.027 15.0965L171.034 15.1L171.481 14.2053ZM166.404 9.30097H165.404V10.301H166.404V9.30097ZM166.404 1H167.404V0H166.404V1ZM160.564 1V0H159.564V1H160.564ZM160.564 25.1242H159.564V26.1242H160.564V25.1242ZM173.372 24.5443L173.683 25.4948H173.683L173.372 24.5443ZM176.408 22.9039L177.052 23.6693L177.053 23.6685L176.408 22.9039ZM178.366 20.3689L179.272 20.7917L179.274 20.7878L178.366 20.3689ZM177.852 13.0124L177.021 13.5694L177.025 13.5748L177.852 13.0124ZM174.5 10.2785L174.09 11.1905V11.1905L174.5 10.2785ZM186.612 1H187.612V0H186.612V1ZM186.612 25.1242V26.1242H187.612V25.1242H186.612ZM180.805 1V0H179.805V1H180.805ZM180.805 25.1242H179.805V26.1242H180.805V25.1242ZM27.3611 42.718L28.3034 42.3833L27.3611 42.718ZM24.5229 37.8835L23.7828 38.5561L23.7865 38.56L24.5229 37.8835ZM20.1795 34.8245L19.7854 35.7436L19.7949 35.7475L20.1795 34.8245ZM9.12765 34.8245L9.51508 35.7464L9.51891 35.7447L9.12765 34.8245ZM4.8058 37.8835L4.06579 37.2109L4.06541 37.2113L4.8058 37.8835ZM1.98908 42.718L1.04674 42.3833L1.04453 42.3896L1.98908 42.718ZM1.98908 56.8151L1.04449 57.1435L1.04756 57.1521L1.98908 56.8151ZM4.8273 61.6497L4.08725 62.3223L4.09484 62.3305L4.8273 61.6497ZM9.17065 64.7087L8.77651 65.6278L8.78604 65.6318L9.17065 64.7087ZM20.2225 64.7087L20.61 65.6306L20.6166 65.6277L20.2225 64.7087ZM24.5444 61.6497L25.2808 62.3262L25.2844 62.3223L24.5444 61.6497ZM27.3611 56.8151L26.4188 56.4804L26.4173 56.4846L27.3611 56.8151ZM20.3085 54.4621L19.334 54.2378L19.332 54.2466L20.3085 54.4621ZM19.1474 57.4355L18.3031 56.8995L18.2965 56.9103L19.1474 57.4355ZM17.2768 59.2752L17.762 60.1496H17.762L17.2768 59.2752ZM12.0734 59.2752L11.5882 60.1496L11.5953 60.1535L12.0734 59.2752ZM10.1812 57.4355L9.33019 57.9608L9.33698 57.9715L10.1812 57.4355ZM9.04164 54.4621L8.06208 54.6637L8.06513 54.6775L9.04164 54.4621ZM9.04164 45.0283L8.06454 44.8153L8.06267 44.8243L9.04164 45.0283ZM10.1812 42.0549L9.33446 41.5229L9.33445 41.5229L10.1812 42.0549ZM12.0519 40.258L12.5241 41.1394L12.5306 41.136L12.537 41.1324L12.0519 40.258ZM17.2338 40.258L16.7486 41.1324L16.7585 41.1379L16.7685 41.1431L17.2338 40.258ZM19.1474 42.0549L19.9874 41.5121H19.9874L19.1474 42.0549ZM20.3085 45.0283L19.3315 45.2413L19.333 45.2482L19.3346 45.2551L20.3085 45.0283ZM39.8321 39.9799V38.9799H38.8321V39.9799H39.8321ZM39.8321 47.1461H38.8321V48.1461H39.8321V47.1461ZM53.2276 39.9799V40.9799H54.2276V39.9799H53.2276ZM53.2276 34.1827H54.2276V33.1827H53.2276V34.1827ZM32.285 34.1827V33.1827H31.285V34.1827H32.285ZM32.285 65.329H31.285V66.329H32.285V65.329ZM39.8321 65.329V66.329H40.8321V65.329H39.8321ZM39.8321 52.9219V51.9219H38.8321V52.9219H39.8321ZM52.002 52.9219V53.9219H53.002V52.9219H52.002ZM52.002 47.1461H53.002V46.1461H52.002V47.1461ZM63.914 47.1461H62.914V48.1461H63.914V47.1461ZM63.914 39.9799V38.9799H62.914V39.9799H63.914ZM76.084 47.1461H77.084V46.1461H76.084V47.1461ZM76.084 52.9219V53.9219H77.084V52.9219H76.084ZM63.914 52.9219V51.9219H62.914V52.9219H63.914ZM63.914 65.329V66.329H64.914V65.329H63.914ZM56.3669 65.329H55.3669V66.329H56.3669V65.329ZM56.3669 34.1827V33.1827H55.3669V34.1827H56.3669ZM77.3096 34.1827H78.3096V33.1827H77.3096V34.1827ZM77.3096 39.9799V40.9799H78.3096V39.9799H77.3096ZM94.2529 49.1141H95.2529V48.1141H94.2529V49.1141ZM94.2529 54.6974V55.6974H95.2529V54.6974H94.2529ZM81.3304 49.1141V48.1141H80.3304V49.1141H81.3304ZM81.3304 54.6974H80.3304V55.6974H81.3304V54.6974ZM120.958 65.329V66.329H121.958V65.329H120.958ZM120.958 59.5533H121.958V58.5533H120.958V59.5533ZM100.273 65.329H99.2734V66.329H100.273V65.329ZM100.273 34.1827V33.1827H99.2734V34.1827H100.273ZM107.82 34.1827H108.82V33.1827H107.82V34.1827ZM107.82 59.5533H106.82V60.5533H107.82V59.5533ZM132.16 34.1827H133.16V33.1827H132.16V34.1827ZM132.16 65.329V66.329H133.16V65.329H132.16ZM124.635 34.1827V33.1827H123.635V34.1827H124.635ZM124.635 65.329H123.635V66.329H124.635V65.329ZM163.617 65.329V66.329H164.617V65.329H163.617ZM163.617 34.1827H164.617V33.1827H163.617V34.1827ZM156.092 65.329L155.224 65.8251L155.511 66.329H156.092V65.329ZM145.018 45.9482L145.887 45.4521L144.018 42.1822V45.9482H145.018ZM145.018 65.329V66.329H146.018V65.329H145.018ZM137.471 65.329H136.471V66.329H137.471V65.329ZM137.471 34.1827V33.1827H136.471V34.1827H137.471ZM145.018 34.1827L145.887 33.6866L145.599 33.1827H145.018V34.1827ZM156.092 53.5636L155.224 54.0597L157.092 57.3296V53.5636H156.092ZM156.092 34.1827V33.1827H155.092V34.1827H156.092ZM189.936 59.5533H190.936V58.5533H189.936V59.5533ZM189.936 65.329V66.329H190.936V65.329H189.936ZM175.938 59.5533H174.938V60.5533H175.938V59.5533ZM175.938 52.1304V51.1304H174.938V52.1304H175.938ZM187.785 52.1304V53.1304H188.785V52.1304H187.785ZM187.785 46.5471H188.785V45.5471H187.785V46.5471ZM175.938 46.5471H174.938V47.5471H175.938V46.5471ZM175.938 39.9799V38.9799H174.938V39.9799H175.938ZM190 39.9799V40.9799H191V39.9799H190ZM190 34.1827H191V33.1827H190V34.1827ZM168.391 34.1827V33.1827H167.391V34.1827H168.391ZM168.391 65.329H167.391V66.329H168.391V65.329ZM6.18324 1V10.3282H8.18324V1H6.18324ZM1.3765 2H7.18324V0H1.3765V2ZM2.3765 25.1242V1H0.376495V25.1242H2.3765ZM7.18324 24.1242H1.3765V26.1242H7.18324V24.1242ZM6.18324 15.5805V25.1242H8.18324V15.5805H6.18324ZM9.96474 14.5805H7.18324V16.5805H9.96474V14.5805ZM15.9618 24.6517L10.8461 15.1081L9.08338 16.053L14.199 25.5966L15.9618 24.6517ZM21.501 24.1242H15.0804V26.1242H21.501V24.1242ZM21.949 24.1242H21.501V26.1242H21.949V24.1242ZM27.7557 24.1242H21.949V26.1242H27.7557V24.1242ZM28.1933 20.3221L26.8003 24.8288L28.7111 25.4195L30.1041 20.9128L28.1933 20.3221ZM37.1261 19.6175H29.1487V21.6175H37.1261V19.6175ZM39.4782 24.8281L38.0813 20.3214L36.1709 20.9135L37.5679 25.4202L39.4782 24.8281ZM44.7943 24.1242H38.5231V26.1242H44.7943V24.1242ZM34.9307 1.347L43.8565 25.4712L45.7322 24.7772L36.8064 0.652996L34.9307 1.347ZM34.3422 2H35.8685V0H34.3422V2ZM31.8536 2H34.3422V0H31.8536V2ZM30.377 2H31.8536V0H30.377V2ZM22.6144 24.994L31.3155 1.3453L29.4385 0.6547L20.7375 24.3034L22.6144 24.994ZM13.6248 12.6344L20.8087 25.1466L22.5432 24.1508L15.3593 11.6386L13.6248 12.6344ZM20.2601 0.488602L13.6327 11.6251L15.3514 12.6479L21.9788 1.5114L20.2601 0.488602ZM14.085 2H21.1194V0H14.085V2ZM10.3347 10.774L14.9801 1.44578L13.1898 0.554224L8.54443 9.88246L10.3347 10.774ZM7.18324 11.3282H9.43957V9.32823H7.18324V11.3282ZM31.4921 16.4226L34.0872 8.02691L32.1764 7.43628L29.5813 15.832L31.4921 16.4226ZM35.7343 15.1273H30.5367V17.1273H35.7343V15.1273ZM32.1766 8.02767L34.7791 16.4234L36.6894 15.8312L34.087 7.43552L32.1766 8.02767ZM60.9537 14.0503H52.3929V16.0503H60.9537V14.0503ZM61.9537 25.1242V15.0503H59.9537V25.1242H61.9537ZM66.7604 24.1242H60.9537V26.1242H66.7604V24.1242ZM65.7604 1V25.1242H67.7604V1H65.7604ZM60.9537 2H66.7604V0H60.9537V2ZM61.9537 10.5768V1H59.9537V10.5768H61.9537ZM52.3929 11.5768H60.9537V9.57676H52.3929V11.5768ZM51.3929 1V10.5768H53.3929V1H51.3929ZM46.5695 2H52.3929V0H46.5695V2ZM47.5695 25.1242V1H45.5695V25.1242H47.5695ZM52.3929 24.1242H46.5695V26.1242H52.3929V24.1242ZM51.3929 15.0503V25.1242H53.3929V15.0503H51.3929ZM76.8205 16.7218L85.4974 1.4951L83.7597 0.504896L75.0828 15.7316L76.8205 16.7218ZM74.9517 1V16.2267H76.9517V1H74.9517ZM70.1283 2H75.9517V0H70.1283V2ZM71.1283 25.1242V1H69.1283V25.1242H71.1283ZM75.9517 24.1242H70.1283V26.1242H75.9517V24.1242ZM83.76 9.4185L75.0831 24.6287L76.8203 25.6197L85.4972 10.4095L83.76 9.4185ZM85.6286 25.1242V9.91401H83.6286V25.1242H85.6286ZM90.4519 24.1242H84.6286V26.1242H90.4519V24.1242ZM89.4519 1V25.1242H91.4519V1H89.4519ZM84.6286 2H90.4519V0H84.6286V2ZM100.792 10.3282V1H98.7925V10.3282H100.792ZM102.049 9.32823H99.7925V11.3282H102.049V9.32823ZM105.799 0.554224L101.154 9.88246L102.944 10.774L107.589 1.44578L105.799 0.554224ZM113.729 0H106.694V2H113.729V0ZM107.961 12.6479L114.588 1.5114L112.869 0.488602L106.242 11.6251L107.961 12.6479ZM115.425 24.6262L107.969 11.6386L106.234 12.6344L113.691 25.6221L115.425 24.6262ZM107.69 26.1242H114.558V24.1242H107.69V26.1242ZM101.693 16.053L106.808 25.5966L108.571 24.6517L103.455 15.1081L101.693 16.053ZM99.7925 16.5805H102.574V14.5805H99.7925V16.5805ZM100.792 25.1242V15.5805H98.7925V25.1242H100.792ZM93.9857 26.1242H99.7925V24.1242H93.9857V26.1242ZM92.9857 1V25.1242H94.9857V1H92.9857ZM99.7925 0H93.9857V2H99.7925V0ZM113.354 1.45796L122.09 18.4166L123.868 17.5007L115.132 0.542039L113.354 1.45796ZM120.431 0H114.243V2H120.431V0ZM126.28 11.0445L121.336 0.573053L119.527 1.42695L124.471 11.8984L126.28 11.0445ZM126.347 11.232L126.338 11.1995L124.413 11.7435L124.422 11.776L126.347 11.232ZM128.439 0.644967L124.45 11.149L126.319 11.8591L130.309 1.35503L128.439 0.644967ZM135.529 0H129.374V2H135.529V0ZM128.303 20.5286L136.449 1.39166L134.609 0.608337L126.463 19.7453L128.303 20.5286ZM127.147 22.6967C127.585 22.0116 127.969 21.292 128.299 20.5382L126.467 19.7357C126.178 20.3958 125.843 21.0238 125.462 21.62L127.147 22.6967ZM125.546 24.6087C126.17 24.0476 126.706 23.4058 127.154 22.6862L125.455 21.6305C125.106 22.1922 124.691 22.6881 124.209 23.1212L125.546 24.6087ZM123.314 25.9737C124.162 25.6452 124.913 25.1897 125.554 24.6019L124.202 23.128C123.759 23.5343 123.226 23.863 122.592 24.1089L123.314 25.9737ZM120.348 26.4721C121.437 26.4721 122.433 26.3153 123.314 25.9737L122.592 24.1089C121.991 24.3417 121.25 24.4721 120.348 24.4721V26.4721ZM119.421 26.4551C119.781 26.4663 120.091 26.4721 120.348 26.4721V24.4721C120.119 24.4721 119.831 24.4669 119.484 24.456L119.421 26.4551ZM118.513 26.438C118.786 26.4499 119.1 26.4555 119.452 26.4555V24.4555C119.119 24.4555 118.836 24.4502 118.6 24.4399L118.513 26.438ZM117.457 20.9543L117.557 25.4611L119.556 25.4169L119.457 20.9102L117.457 20.9543ZM119.098 19.9995C118.867 19.9895 118.738 19.9709 118.682 19.9578L118.232 21.9067C118.463 21.9599 118.733 21.9855 119.011 21.9976L119.098 19.9995ZM119.602 19.9985H119.054V21.9985H119.602V19.9985ZM120.807 19.8379C120.587 19.9258 120.205 19.9985 119.602 19.9985V21.9985C120.326 21.9985 120.995 21.9166 121.549 21.6952L120.807 19.8379ZM121.268 19.4693C121.162 19.6218 121.013 19.7495 120.784 19.8472L121.571 21.6859C122.117 21.4523 122.576 21.094 122.913 20.6058L121.268 19.4693ZM121.737 18.4679C121.593 18.9104 121.432 19.2342 121.271 19.4636L122.909 20.6115C123.213 20.1781 123.451 19.6625 123.638 19.0887L121.737 18.4679ZM122.037 17.6233L121.746 18.443L123.63 19.1136L123.921 18.2939L122.037 17.6233ZM145.7 6.49014H151.124V4.49014H145.7V6.49014ZM146.299 13.3123L146.699 5.5415L144.702 5.43879L144.302 13.2096L146.299 13.3123ZM145.716 18.2669C146.005 16.8572 146.198 15.2038 146.299 13.3145L144.302 13.2073C144.204 15.0295 144.021 16.5794 143.757 17.8649L145.716 18.2669ZM144.517 21.8979C145.032 20.8812 145.427 19.6652 145.716 18.2684L143.757 17.8633C143.493 19.1397 143.147 20.1769 142.733 20.9939L144.517 21.8979ZM142.588 24.3861C143.363 23.743 144.001 22.9047 144.515 21.9022L142.735 20.9895C142.32 21.7986 141.841 22.4073 141.311 22.8467L142.588 24.3861ZM139.936 25.7419C140.93 25.4747 141.819 25.0241 142.588 24.3861L141.311 22.8467C140.775 23.2912 140.148 23.6138 139.417 23.8105L139.936 25.7419ZM136.806 26.1242C137.94 26.1242 138.987 26.0005 139.939 25.7411L139.414 23.8114C138.663 24.0159 137.797 24.1242 136.806 24.1242V26.1242ZM135.396 26.1242H136.806V24.1242H135.396V26.1242ZM134.396 20.6506V25.1242H136.396V20.6506H134.396ZM135.922 19.5898L135.292 19.6561L135.501 21.6451L136.131 21.5788L135.922 19.5898ZM136.875 19.3016C136.623 19.4451 136.311 19.5476 135.919 19.5902L136.134 21.5785C136.76 21.5106 137.343 21.337 137.866 21.0386L136.875 19.3016ZM137.512 18.6217C137.305 18.9608 137.082 19.1769 136.856 19.3123L137.884 21.0279C138.433 20.6993 138.873 20.2306 139.219 19.6639L137.512 18.6217ZM138.113 17.1461C137.942 17.7876 137.739 18.265 137.522 18.6068L139.21 19.6789C139.568 19.1149 139.84 18.4325 140.046 17.6601L138.113 17.1461ZM138.533 14.7256C138.426 15.6983 138.284 16.502 138.113 17.1461L140.046 17.6602C140.25 16.8904 140.407 15.982 140.521 14.9443L138.533 14.7256ZM138.777 11.2401C138.733 12.5786 138.652 13.736 138.534 14.7161L140.52 14.9538C140.646 13.9014 140.731 12.684 140.775 11.3052L138.777 11.2401ZM139.142 0.964491L138.777 11.2371L140.775 11.3082L141.14 1.03551L139.142 0.964491ZM140.539 0H140.141V2H140.539V0ZM145.931 0H140.539V2H145.931V0ZM151.124 0H145.931V2H151.124V0ZM153.015 0H151.124V2H153.015V0ZM156.947 0H153.015V2H156.947V0ZM157.947 25.1242V1H155.947V25.1242H157.947ZM151.124 26.1242H156.947V24.1242H151.124V26.1242ZM150.124 5.49014V25.1242H152.124V5.49014H150.124ZM167.404 20.6506V13.7745H165.404V20.6506H167.404ZM169.39 19.6506H166.404V21.6506H169.39V19.6506ZM170.987 19.3005C170.61 19.5147 170.094 19.6506 169.39 19.6506V21.6506C170.346 21.6506 171.224 21.4661 171.975 21.0397L170.987 19.3005ZM171.92 18.4035C171.719 18.76 171.422 19.0582 170.994 19.2965L171.967 21.0437C172.69 20.6413 173.266 20.089 173.663 19.3851L171.92 18.4035ZM172.239 17.0883C172.239 17.5947 172.127 18.0285 171.916 18.4112L173.667 19.3774C174.053 18.6776 174.239 17.9074 174.239 17.0883H172.239ZM171.934 15.8967C172.13 16.2223 172.239 16.6095 172.239 17.0883H174.239C174.239 16.2858 174.05 15.5353 173.649 14.8667L171.934 15.8967ZM171.034 15.1C171.458 15.3118 171.744 15.58 171.934 15.8967L173.649 14.8667C173.242 14.1893 172.654 13.6733 171.928 13.3107L171.034 15.1ZM169.39 14.7745C170.109 14.7745 170.64 14.8995 171.027 15.0965L171.935 13.3142C171.193 12.9367 170.331 12.7745 169.39 12.7745V14.7745ZM166.404 14.7745H169.39V12.7745H166.404V14.7745ZM166.404 10.301H169.39V8.30097H166.404V10.301ZM165.404 1V9.30097H167.404V1H165.404ZM160.564 2H166.404V0H160.564V2ZM161.564 25.1242V1H159.564V25.1242H161.564ZM169.39 24.1242H160.564V26.1242H169.39V24.1242ZM173.062 23.5937C171.995 23.9422 170.775 24.1242 169.39 24.1242V26.1242C170.948 26.1242 172.383 25.9195 173.683 25.4948L173.062 23.5937ZM175.765 22.1386C175.034 22.7527 174.139 23.2416 173.062 23.5937L173.683 25.4948C174.972 25.0737 176.101 24.469 177.052 23.6693L175.765 22.1386ZM177.46 19.9461C177.07 20.7815 176.509 21.5113 175.764 22.1394L177.053 23.6685C178.011 22.8606 178.755 21.9004 179.272 20.7917L177.46 19.9461ZM178.046 17.1214C178.046 18.1721 177.845 19.11 177.458 19.9501L179.274 20.7878C179.793 19.6617 180.046 18.4346 180.046 17.1214H178.046ZM177.025 13.5748C177.696 14.5621 178.046 15.731 178.046 17.1214H180.046C180.046 15.3748 179.6 13.8044 178.679 12.45L177.025 13.5748ZM174.09 11.1905C175.391 11.7755 176.353 12.5729 177.021 13.5694L178.682 12.4554C177.78 11.1101 176.508 10.0849 174.911 9.36653L174.09 11.1905ZM169.39 10.301C171.239 10.301 172.797 10.6087 174.09 11.1905L174.911 9.36653C173.306 8.64498 171.458 8.30097 169.39 8.30097V10.301ZM185.612 1V25.1242H187.612V1H185.612ZM180.805 2H186.612V0H180.805V2ZM181.805 25.1242V1H179.805V25.1242H181.805ZM186.612 24.1242H180.805V26.1242H186.612V24.1242ZM27.3717 49.1355V50.3976H29.3717V49.1355H27.3717ZM26.4188 43.0527C27.048 44.8243 27.3717 46.8476 27.3717 49.1355H29.3717C29.3717 46.6603 29.0216 44.4052 28.3034 42.3833L26.4188 43.0527ZM23.7865 38.56C24.9039 39.7763 25.7847 41.2677 26.4188 43.0527L28.3034 42.3833C27.59 40.3749 26.5787 38.6432 25.2593 37.207L23.7865 38.56ZM19.7949 35.7475C21.3371 36.3901 22.6634 37.3244 23.7829 38.5561L25.2629 37.2109C23.9455 35.7615 22.3763 34.6564 20.5641 33.9014L19.7949 35.7475ZM14.6751 34.7549C16.5613 34.7549 18.2601 35.0894 19.7854 35.7435L20.5736 33.9054C18.7734 33.1334 16.8026 32.7549 14.6751 32.7549V34.7549ZM9.51891 35.7447C11.0595 35.0898 12.7737 34.7549 14.6751 34.7549V32.7549C12.5342 32.7549 10.5501 33.1331 8.73638 33.9042L9.51891 35.7447ZM5.54581 38.5561C6.66672 37.3228 7.98716 36.3885 9.51508 35.7464L8.74022 33.9026C6.94253 34.6581 5.38175 35.763 4.06579 37.2109L5.54581 38.5561ZM2.9314 43.0527C3.56628 41.2653 4.44144 39.7725 5.54619 38.5557L4.06541 37.2113C2.76197 38.647 1.75932 40.3772 1.04676 42.3833L2.9314 43.0527ZM2 49.1355C2 46.8454 2.31706 44.8199 2.93363 43.0464L1.04453 42.3896C0.342328 44.4095 0 46.6624 0 49.1355H2ZM2 50.3976V49.1355H0V50.3976H2ZM2.93363 56.4868C2.31706 54.7132 2 52.6877 2 50.3976H0C0 52.8708 0.342328 55.1236 1.04453 57.1435L2.93363 56.4868ZM5.56731 60.9771C4.44629 59.7437 3.56454 58.2495 2.9306 56.4782L1.04756 57.1521C1.76106 59.1457 2.77146 60.8746 4.0873 62.3223L5.56731 60.9771ZM9.56477 63.7896C8.03024 63.1316 6.69767 62.1931 5.55976 60.9689L4.09484 62.3305C5.42246 63.7588 6.98546 64.8597 8.77653 65.6277L9.56477 63.7896ZM14.7181 64.7569C12.8141 64.7569 11.0975 64.4282 9.55526 63.7856L8.78604 65.6318C10.598 66.3868 12.5798 66.7569 14.7181 66.7569V64.7569ZM19.8351 63.7868C18.3081 64.4285 16.6069 64.7569 14.7181 64.7569V66.7569C16.843 66.7569 18.8114 66.3864 20.61 65.6306L19.8351 63.7868ZM23.808 60.9731C22.6856 62.1948 21.3619 63.132 19.8284 63.7896L20.6166 65.6277C22.4088 64.8592 23.9662 63.7571 25.2808 62.3262L23.808 60.9731ZM26.4173 56.4846C25.7977 58.2534 24.9239 59.7453 23.8044 60.9771L25.2844 62.3223C26.6017 60.8729 27.6057 59.1419 28.3049 57.1457L26.4173 56.4846ZM27.3717 50.3976C27.3717 52.6856 27.048 54.7088 26.4188 56.4804L28.3034 57.1499C29.0216 55.128 29.3717 52.8729 29.3717 50.3976H27.3717ZM21.7171 50.3976V49.0927H19.7171V50.3976H21.7171ZM21.2831 54.6863C21.576 53.4132 21.7171 51.9807 21.7171 50.3976H19.7171C19.7171 51.8664 19.5858 53.1436 19.334 54.2378L21.2831 54.6863ZM19.9917 57.9715C20.5833 57.0396 21.0078 55.934 21.285 54.6775L19.332 54.2466C19.0932 55.3289 18.7437 56.2056 18.3032 56.8996L19.9917 57.9715ZM17.762 60.1496C18.6746 59.6432 19.4178 58.9015 19.9984 57.9607L18.2965 56.9103C17.8737 57.5953 17.3698 58.08 16.7916 58.4008L17.762 60.1496ZM14.7181 60.8955C15.8264 60.8955 16.8501 60.6555 17.762 60.1496L16.7916 58.4008C16.2127 58.722 15.5306 58.8955 14.7181 58.8955V60.8955ZM11.5953 60.1535C12.5236 60.6589 13.5745 60.8955 14.7181 60.8955V58.8955C13.8548 58.8955 13.1426 58.7187 12.5515 58.3969L11.5953 60.1535ZM9.33698 57.9715C9.9308 58.9069 10.6787 59.645 11.5882 60.1496L12.5585 58.4008C11.9773 58.0783 11.4637 57.5899 11.0255 56.8996L9.33698 57.9715ZM8.06513 54.6775C8.34145 55.9299 8.75684 57.0316 9.33026 57.9607L11.0322 56.9103C10.6022 56.2136 10.2579 55.333 10.0182 54.2466L8.06513 54.6775ZM7.67611 50.3976C7.67611 51.9745 7.80183 53.3991 8.06218 54.6637L10.0211 54.2604C9.79408 53.1577 9.67611 51.8726 9.67611 50.3976H7.67611ZM7.67611 49.0927V50.3976H9.67611V49.0927H7.67611ZM8.06267 44.8243C7.80166 46.0768 7.67611 47.5026 7.67611 49.0927H9.67611C9.67611 47.6025 9.79424 46.3186 10.0206 45.2323L8.06267 44.8243ZM9.33445 41.5229C8.75649 42.4429 8.34058 43.5492 8.06458 44.8153L10.0187 45.2413C10.2587 44.1401 10.6026 43.2641 11.028 42.5868L9.33445 41.5229ZM11.5797 39.3765C10.6641 39.867 9.91766 40.5946 9.33446 41.5229L11.028 42.5868C11.4482 41.9179 11.9489 41.4476 12.5241 41.1394L11.5797 39.3765ZM14.6751 38.6376C13.5321 38.6376 12.4849 38.8741 11.5667 39.3835L12.537 41.1324C13.1097 40.8147 13.8113 40.6376 14.6751 40.6376V38.6376ZM17.719 39.3835C16.8071 38.8776 15.7834 38.6376 14.6751 38.6376V40.6376C15.4876 40.6376 16.1697 40.8112 16.7486 41.1324L17.719 39.3835ZM19.9874 41.5121C19.3883 40.585 18.627 39.8605 17.699 39.3728L16.7685 41.1431C17.36 41.454 17.8745 41.9275 18.3075 42.5976L19.9874 41.5121ZM21.2856 44.8153C21.0087 43.5451 20.5836 42.435 19.9874 41.5121L18.3075 42.5976C18.7433 43.272 19.0923 44.1442 19.3315 45.2413L21.2856 44.8153ZM21.7171 49.0927C21.7171 47.4965 21.5762 46.0627 21.2825 44.8015L19.3346 45.2551C19.5856 46.3327 19.7171 47.6086 19.7171 49.0927H21.7171ZM38.8321 39.9799V47.1461H40.8321V39.9799H38.8321ZM53.2276 38.9799H39.8321V40.9799H53.2276V38.9799ZM52.2276 34.1827V39.9799H54.2276V34.1827H52.2276ZM39.8321 35.1827H53.2276V33.1827H39.8321V35.1827ZM37.6819 35.1827H39.8321V33.1827H37.6819V35.1827ZM32.285 35.1827H37.6819V33.1827H32.285V35.1827ZM33.285 65.329V34.1827H31.285V65.329H33.285ZM39.8321 64.329H32.285V66.329H39.8321V64.329ZM38.8321 52.9219V65.329H40.8321V52.9219H38.8321ZM52.002 51.9219H39.8321V53.9219H52.002V51.9219ZM51.002 47.1461V52.9219H53.002V47.1461H51.002ZM39.8321 48.1461H52.002V46.1461H39.8321V48.1461ZM64.914 47.1461V39.9799H62.914V47.1461H64.914ZM76.084 46.1461H63.914V48.1461H76.084V46.1461ZM77.084 52.9219V47.1461H75.084V52.9219H77.084ZM63.914 53.9219H76.084V51.9219H63.914V53.9219ZM64.914 65.329V52.9219H62.914V65.329H64.914ZM56.3669 66.329H63.914V64.329H56.3669V66.329ZM55.3669 34.1827V65.329H57.3669V34.1827H55.3669ZM61.7638 33.1827H56.3669V35.1827H61.7638V33.1827ZM63.914 33.1827H61.7638V35.1827H63.914V33.1827ZM77.3096 33.1827H63.914V35.1827H77.3096V33.1827ZM78.3096 39.9799V34.1827H76.3096V39.9799H78.3096ZM63.914 40.9799H77.3096V38.9799H63.914V40.9799ZM93.2529 49.1141V54.6974H95.2529V49.1141H93.2529ZM81.3304 50.1141H94.2529V48.1141H81.3304V50.1141ZM82.3304 54.6974V49.1141H80.3304V54.6974H82.3304ZM94.2529 53.6974H81.3304V55.6974H94.2529V53.6974ZM121.958 65.329V59.5533H119.958V65.329H121.958ZM107.82 66.329H120.958V64.329H107.82V66.329ZM105.133 66.329H107.82V64.329H105.133V66.329ZM100.273 66.329H105.133V64.329H100.273V66.329ZM99.2734 34.1827V65.329H101.273V34.1827H99.2734ZM107.82 33.1827H100.273V35.1827H107.82V33.1827ZM108.82 59.5533V34.1827H106.82V59.5533H108.82ZM120.958 58.5533H107.82V60.5533H120.958V58.5533ZM131.16 34.1827V65.329H133.16V34.1827H131.16ZM124.635 35.1827H132.16V33.1827H124.635V35.1827ZM125.635 65.329V34.1827H123.635V65.329H125.635ZM132.16 64.329H124.635V66.329H132.16V64.329ZM164.617 65.329V34.1827H162.617V65.329H164.617ZM156.092 66.329H163.617V64.329H156.092V66.329ZM144.15 46.4442L155.224 65.8251L156.96 64.833L145.887 45.4521L144.15 46.4442ZM146.018 65.329V45.9482H144.018V65.329H146.018ZM137.471 66.329H145.018V64.329H137.471V66.329ZM136.471 34.1827V65.329H138.471V34.1827H136.471ZM145.018 33.1827H137.471V35.1827H145.018V33.1827ZM156.96 53.0675L145.887 33.6866L144.15 34.6788L155.224 54.0597L156.96 53.0675ZM155.092 34.1827V53.5636H157.092V34.1827H155.092ZM163.617 33.1827H156.092V35.1827H163.617V33.1827ZM188.936 59.5533V65.329H190.936V59.5533H188.936ZM175.938 60.5533H189.936V58.5533H175.938V60.5533ZM174.938 52.1304V59.5533H176.938V52.1304H174.938ZM187.785 51.1304H175.938V53.1304H187.785V51.1304ZM186.785 46.5471V52.1304H188.785V46.5471H186.785ZM175.938 47.5471H187.785V45.5471H175.938V47.5471ZM174.938 39.9799V46.5471H176.938V39.9799H174.938ZM190 38.9799H175.938V40.9799H190V38.9799ZM189 34.1827V39.9799H191V34.1827H189ZM175.938 35.1827H190V33.1827H175.938V35.1827ZM173.25 35.1827H175.938V33.1827H173.25V35.1827ZM168.391 35.1827H173.25V33.1827H168.391V35.1827ZM169.391 65.329V34.1827H167.391V65.329H169.391ZM173.25 64.329H168.391V66.329H173.25V64.329ZM175.938 64.329H173.25V66.329H175.938V64.329ZM189.936 64.329H175.938V66.329H189.936V64.329Z" fill="black" mask="url(#path-1-outside-1_81_2091)"/>
</svg>
